<svg width="120" height="40" viewBox="0 0 120 40" fill="none" xmlns="http://www.w3.org/2000/svg">
<g id="App Store - Filled">
<g id="Group">
<g id="Group_2">
<path id="Vector" d="M110.471 0.00013H9.87062C9.50392 0.00013 9.14162 0.00013 8.77589 0.00213C8.46974 0.00413 8.16603 0.00994 7.85694 0.01483C7.18545 0.0227318 6.51554 0.0818063 5.85304 0.19154C5.19146 0.303663 4.55061 0.515046 3.95216 0.81854C3.35444 1.1246 2.80828 1.5223 2.33351 1.9972C1.85624 2.47077 1.4584 3.01815 1.15529 3.61829C0.851338 4.21724 0.640578 4.85907 0.530288 5.52161C0.418948 6.18332 0.359036 6.85265 0.351088 7.52361C0.341808 7.83021 0.340827 8.13783 0.335938 8.44447V31.5587C0.340827 31.8692 0.341808 32.17 0.351088 32.4806C0.359038 33.1516 0.418951 33.8209 0.530288 34.4825C0.640273 35.1455 0.851046 35.7877 1.15529 36.3868C1.45826 36.985 1.85616 37.5302 2.33351 38.0011C2.80648 38.4781 3.35299 38.8761 3.95216 39.1798C4.55061 39.4841 5.19139 39.6968 5.85304 39.8106C6.51566 39.9195 7.18549 39.9786 7.85694 39.9874C8.16603 39.9942 8.46974 39.9981 8.77589 39.9981C9.14161 40.0001 9.50394 40.0001 9.87062 40.0001H110.471C110.83 40.0001 111.195 40.0001 111.555 39.9981C111.859 39.9981 112.172 39.9942 112.477 39.9874C113.147 39.9791 113.815 39.92 114.477 39.8106C115.14 39.696 115.783 39.4834 116.385 39.1798C116.983 38.8759 117.529 38.478 118.002 38.0011C118.478 37.5284 118.877 36.9836 119.184 36.3868C119.486 35.7872 119.694 35.1451 119.803 34.4825C119.914 33.8208 119.976 33.1516 119.988 32.4806C119.992 32.17 119.992 31.8692 119.992 31.5587C120 31.1954 120 30.8341 120 30.4649V9.53626C120 9.17005 120 8.80677 119.992 8.44447C119.992 8.13783 119.992 7.83021 119.988 7.52357C119.976 6.85255 119.914 6.18337 119.803 5.52157C119.694 4.85941 119.485 4.21763 119.184 3.61825C118.566 2.41533 117.588 1.43616 116.385 0.81845C115.783 0.515697 115.14 0.30437 114.477 0.19145C113.815 0.0812328 113.147 0.0221378 112.477 0.01469C112.172 0.00981 111.859 0.00395 111.555 0.002C111.195 0 110.83 0 110.471 0V0.00013Z" fill="#A6A6A6"/>
<path id="Vector_2" d="M8.7808 39.125C8.47612 39.125 8.1788 39.1211 7.87651 39.1143C7.2503 39.1061 6.62554 39.0516 6.00737 38.9512C5.43096 38.8519 4.87258 38.6673 4.35063 38.4033C3.83348 38.1415 3.36179 37.7983 2.95363 37.3867C2.53957 36.98 2.19485 36.5082 1.93312 35.9902C1.66851 35.4688 1.48539 34.9099 1.39012 34.333C1.28725 33.7131 1.23159 33.0863 1.22362 32.458C1.21728 32.2471 1.20898 31.5449 1.20898 31.5449V8.44434C1.20898 8.44434 1.21782 7.75293 1.22367 7.5498C1.2313 6.92248 1.28664 6.29665 1.3892 5.67773C1.48464 5.09925 1.66791 4.53875 1.93266 4.01563C2.19343 3.49794 2.53624 3.02586 2.9478 2.61768C3.35891 2.20562 3.83211 1.8606 4.35014 1.59521C4.87089 1.33209 5.42822 1.14873 6.00346 1.05127C6.62366 0.949836 7.25059 0.894996 7.87897 0.88721L8.78129 0.875H111.55L112.463 0.8877C113.086 0.895099 113.707 0.94945 114.321 1.05029C114.902 1.14898 115.466 1.33362 115.992 1.59814C117.03 2.13299 117.875 2.97916 118.407 4.01807C118.668 4.53758 118.848 5.09351 118.942 5.66699C119.046 6.29099 119.104 6.92174 119.116 7.5542C119.119 7.8374 119.119 8.1416 119.119 8.44434C119.127 8.81934 119.127 9.17627 119.127 9.53613V30.4648C119.127 30.8281 119.127 31.1826 119.119 31.54C119.119 31.8652 119.119 32.1631 119.115 32.4697C119.104 33.0909 119.046 33.7104 118.944 34.3232C118.851 34.9043 118.669 35.4675 118.404 35.9932C118.141 36.5056 117.798 36.9733 117.389 37.3789C116.98 37.7927 116.508 38.1379 115.989 38.4014C115.464 38.6674 114.902 38.8527 114.321 38.9512C113.703 39.0522 113.078 39.1067 112.452 39.1143C112.159 39.1211 111.853 39.125 111.555 39.125L110.471 39.127L8.7808 39.125Z" fill="black"/>
</g>
<g id="&#60;Group&#62;">
<g id="&#60;Group&#62;_2">
<g id="&#60;Group&#62;_3">
<path id="&#60;Path&#62;" d="M25.1049 20.3013C25.1157 19.4666 25.3374 18.6483 25.7494 17.9223C26.1614 17.1964 26.7504 16.5864 27.4615 16.1492C27.0098 15.5041 26.4138 14.9731 25.721 14.5986C25.0282 14.224 24.2575 14.0162 23.4703 13.9916C21.7911 13.8153 20.1631 14.9964 19.3074 14.9964C18.4352 14.9964 17.1177 14.0091 15.6989 14.0383C14.7813 14.0679 13.8869 14.3348 13.103 14.8128C12.3192 15.2909 11.6725 15.9638 11.226 16.7661C9.29201 20.1145 10.7346 25.0356 12.5872 27.7422C13.5141 29.0676 14.5974 30.548 16.0148 30.4955C17.4019 30.438 17.9199 29.611 19.5942 29.611C21.253 29.611 21.739 30.4955 23.1852 30.4621C24.6736 30.438 25.6114 29.1309 26.5058 27.793C27.1717 26.8486 27.6842 25.8049 28.0242 24.7005C27.1595 24.3347 26.4215 23.7226 25.9024 22.9403C25.3833 22.158 25.1059 21.2402 25.1049 20.3013Z" fill="white"/>
<path id="&#60;Path&#62;_2" d="M22.3735 12.2113C23.185 11.2371 23.5848 9.98494 23.488 8.7207C22.2482 8.85092 21.1029 9.44348 20.2804 10.3803C19.8783 10.838 19.5703 11.3704 19.3741 11.9472C19.1778 12.524 19.0972 13.1337 19.1367 13.7417C19.7569 13.7481 20.3704 13.6137 20.931 13.3486C21.4917 13.0835 21.9849 12.6946 22.3735 12.2113Z" fill="white"/>
</g>
</g>
<g id="Group_3">
<path id="Vector_3" d="M42.6387 27.1397H37.9053L36.7686 30.4961H34.7637L39.2471 18.0781H41.3301L45.8135 30.4961H43.7744L42.6387 27.1397ZM38.3955 25.5908H42.1475L40.2979 20.1436H40.2461L38.3955 25.5908Z" fill="white"/>
<path id="Vector_4" d="M55.4961 25.9695C55.4961 28.7829 53.9903 30.5905 51.7178 30.5905C51.1421 30.6207 50.5697 30.4881 50.0659 30.2079C49.5621 29.9278 49.1473 29.5114 48.8692 29.0065H48.8262V33.4909H46.9678V21.4421H48.7666V22.948H48.8008C49.0918 22.4455 49.5135 22.0313 50.0211 21.7495C50.5288 21.4676 51.1033 21.3287 51.6836 21.3474C53.9814 21.3474 55.4961 23.1638 55.4961 25.9695ZM53.586 25.9695C53.586 24.1365 52.6387 22.9314 51.1934 22.9314C49.7735 22.9314 48.8184 24.1618 48.8184 25.9695C48.8184 27.7937 49.7735 29.0154 51.1934 29.0154C52.6387 29.0154 53.586 27.8191 53.586 25.9695Z" fill="white"/>
<path id="Vector_5" d="M65.461 25.9694C65.461 28.7829 63.9551 30.5905 61.6826 30.5905C61.107 30.6206 60.5345 30.488 60.0307 30.2079C59.5269 29.9278 59.1122 29.5114 58.834 29.0065H58.791V33.4909H56.9326V21.4421H58.7314V22.948H58.7656C59.0566 22.4455 59.4783 22.0313 59.9859 21.7495C60.4936 21.4676 61.0681 21.3287 61.6484 21.3474C63.9463 21.3474 65.461 23.1638 65.461 25.9694ZM63.5508 25.9694C63.5508 24.1364 62.6035 22.9314 61.1582 22.9314C59.7383 22.9314 58.7832 24.1618 58.7832 25.9694C58.7832 27.7937 59.7383 29.0153 61.1582 29.0153C62.6035 29.0153 63.5508 27.8191 63.5508 25.9694H63.5508Z" fill="white"/>
<path id="Vector_6" d="M72.0469 27.0362C72.1846 28.2676 73.3809 29.0762 75.0157 29.0762C76.5821 29.0762 77.709 28.2676 77.709 27.1572C77.709 26.1934 77.0293 25.6162 75.42 25.2207L73.8106 24.833C71.5303 24.2822 70.4717 23.2158 70.4717 21.4854C70.4717 19.3428 72.3389 17.8711 74.9903 17.8711C77.6143 17.8711 79.4131 19.3428 79.4737 21.4854H77.5977C77.4854 20.2461 76.4609 19.4981 74.9639 19.4981C73.4668 19.4981 72.4424 20.2549 72.4424 21.3565C72.4424 22.2344 73.0967 22.751 74.6973 23.1465L76.0654 23.4824C78.6133 24.0849 79.6719 25.1084 79.6719 26.9248C79.6719 29.248 77.8213 30.7031 74.8779 30.7031C72.124 30.7031 70.2647 29.2822 70.1445 27.0361L72.0469 27.0362Z" fill="white"/>
<path id="Vector_7" d="M83.6826 19.2998V21.4424H85.4043V22.9141H83.6826V27.9053C83.6826 28.6807 84.0273 29.042 84.7842 29.042C84.9886 29.0384 85.1926 29.0241 85.3955 28.999V30.4619C85.0552 30.5255 84.7094 30.5543 84.3633 30.5478C82.5303 30.5478 81.8154 29.8593 81.8154 28.1035V22.9141H80.499V21.4424H81.8154V19.2998H83.6826Z" fill="white"/>
<path id="Vector_8" d="M86.4014 25.9697C86.4014 23.1211 88.0791 21.3311 90.6953 21.3311C93.3203 21.3311 94.9902 23.1211 94.9902 25.9697C94.9902 28.8262 93.3291 30.6084 90.6953 30.6084C88.0625 30.6084 86.4014 28.8262 86.4014 25.9697ZM93.0967 25.9697C93.0967 24.0156 92.2012 22.8623 90.6953 22.8623C89.1894 22.8623 88.2949 24.0244 88.2949 25.9697C88.2949 27.9316 89.1894 29.0762 90.6953 29.0762C92.2012 29.0762 93.0966 27.9316 93.0966 25.9697H93.0967Z" fill="white"/>
<path id="Vector_9" d="M96.5225 21.442H98.2949V22.983H98.3379C98.4578 22.5017 98.7398 22.0764 99.1364 21.7785C99.533 21.4806 100.02 21.3284 100.516 21.3473C100.73 21.3465 100.943 21.3698 101.152 21.4166V23.1549C100.882 23.0723 100.6 23.0343 100.317 23.0426C100.047 23.0316 99.7783 23.0792 99.5284 23.1821C99.2786 23.285 99.0539 23.4408 98.87 23.6386C98.686 23.8365 98.547 24.0719 98.4626 24.3286C98.3782 24.5852 98.3503 24.8571 98.3809 25.1256V30.4957H96.5225L96.5225 21.442Z" fill="white"/>
<path id="Vector_10" d="M109.721 27.8369C109.471 29.4805 107.87 30.6084 105.822 30.6084C103.188 30.6084 101.554 28.8437 101.554 26.0127C101.554 23.1729 103.197 21.3311 105.744 21.3311C108.249 21.3311 109.824 23.0518 109.824 25.7969V26.4336H103.43V26.5459C103.4 26.8791 103.442 27.2148 103.552 27.5306C103.662 27.8464 103.838 28.1352 104.069 28.3778C104.299 28.6203 104.578 28.8111 104.888 28.9374C105.198 29.0637 105.531 29.1226 105.865 29.1103C106.304 29.1515 106.745 29.0498 107.122 28.8203C107.499 28.5909 107.791 28.246 107.956 27.8369L109.721 27.8369ZM103.438 25.1348H107.965C107.982 24.8352 107.936 24.5354 107.831 24.2541C107.727 23.9729 107.565 23.7164 107.357 23.5006C107.148 23.2849 106.897 23.1145 106.62 23.0003C106.342 22.8861 106.044 22.8305 105.744 22.8369C105.442 22.8351 105.142 22.8933 104.861 23.008C104.581 23.1227 104.327 23.2918 104.113 23.5054C103.898 23.7191 103.728 23.973 103.613 24.2527C103.497 24.5323 103.438 24.8321 103.438 25.1348V25.1348Z" fill="white"/>
</g>
</g>
</g>
<g id="&#60;Group&#62;_4">
<g id="Group_4">
<path id="Vector_11" d="M38.1621 8.7304C38.5517 8.70244 38.9427 8.7613 39.3068 8.90274C39.6709 9.04417 39.9991 9.26465 40.2677 9.54828C40.5363 9.8319 40.7386 10.1716 40.86 10.5429C40.9814 10.9141 41.0188 11.3077 40.9697 11.6952C40.9697 13.6015 39.9395 14.6972 38.1621 14.6972H36.0068V8.7304H38.1621ZM36.9336 13.8534H38.0586C38.337 13.87 38.6156 13.8244 38.8741 13.7198C39.1327 13.6152 39.3646 13.4542 39.5531 13.2487C39.7416 13.0431 39.8819 12.7981 39.9638 12.5315C40.0456 12.2648 40.067 11.9833 40.0264 11.7074C40.0641 11.4326 40.0405 11.1528 39.9574 10.8881C39.8743 10.6235 39.7336 10.3805 39.5456 10.1765C39.3575 9.97261 39.1267 9.8128 38.8696 9.70856C38.6125 9.60433 38.3356 9.55824 38.0586 9.57361H36.9336V13.8534Z" fill="white"/>
<path id="Vector_12" d="M42.0169 12.4438C41.9886 12.1479 42.0224 11.8493 42.1163 11.5672C42.2101 11.2852 42.3619 11.0258 42.5618 10.8059C42.7617 10.5859 43.0055 10.4101 43.2773 10.2898C43.5492 10.1696 43.8431 10.1074 44.1404 10.1074C44.4377 10.1074 44.7317 10.1696 45.0035 10.2898C45.2754 10.4101 45.5191 10.5859 45.719 10.8059C45.919 11.0258 46.0707 11.2852 46.1646 11.5672C46.2584 11.8493 46.2923 12.1479 46.264 12.4438C46.2928 12.74 46.2593 13.039 46.1658 13.3215C46.0722 13.6041 45.9205 13.8639 45.7205 14.0843C45.5205 14.3047 45.2766 14.4808 45.0045 14.6014C44.7324 14.7219 44.438 14.7842 44.1404 14.7842C43.8428 14.7842 43.5485 14.7219 43.2763 14.6014C43.0042 14.4808 42.7603 14.3047 42.5603 14.0843C42.3603 13.8639 42.2087 13.6041 42.1151 13.3215C42.0215 13.039 41.988 12.74 42.0169 12.4438ZM45.3499 12.4438C45.3499 11.4677 44.9114 10.8969 44.1419 10.8969C43.3694 10.8969 42.9349 11.4677 42.9349 12.4438C42.9349 13.4277 43.3695 13.9941 44.1419 13.9941C44.9114 13.9941 45.3499 13.4238 45.3499 12.4438H45.3499Z" fill="white"/>
<path id="Vector_13" d="M51.9092 14.6973H50.9873L50.0566 11.3809H49.9863L49.0596 14.6973H48.1465L46.9053 10.1943H47.8066L48.6133 13.6303H48.6797L49.6055 10.1943H50.458L51.3838 13.6303H51.4541L52.2568 10.1943H53.1455L51.9092 14.6973Z" fill="white"/>
<path id="Vector_14" d="M54.1895 10.1939H55.0449V10.9092H55.1113C55.224 10.6523 55.414 10.4369 55.6549 10.2931C55.8957 10.1493 56.1755 10.0842 56.4551 10.107C56.6742 10.0905 56.8942 10.1235 57.0988 10.2036C57.3034 10.2837 57.4873 10.4088 57.637 10.5697C57.7867 10.7305 57.8983 10.923 57.9635 11.1328C58.0287 11.3426 58.0458 11.5644 58.0137 11.7818V14.6968H57.125V12.0049C57.125 11.2813 56.8106 10.9214 56.1533 10.9214C56.0046 10.9145 55.8561 10.9398 55.718 10.9957C55.58 11.0515 55.4556 11.1365 55.3535 11.2449C55.2514 11.3533 55.1739 11.4825 55.1263 11.6236C55.0788 11.7647 55.0624 11.9145 55.0781 12.0625V14.6968H54.1895L54.1895 10.1939Z" fill="white"/>
<path id="Vector_15" d="M59.4297 8.43652H60.3184V14.6973H59.4297V8.43652Z" fill="white"/>
<path id="Vector_16" d="M61.554 12.4439C61.5257 12.1479 61.5596 11.8494 61.6534 11.5673C61.7473 11.2852 61.8991 11.0259 62.099 10.8059C62.299 10.5859 62.5427 10.4101 62.8146 10.2898C63.0865 10.1696 63.3805 10.1074 63.6777 10.1074C63.975 10.1074 64.269 10.1696 64.5409 10.2898C64.8128 10.4101 65.0565 10.5859 65.2565 10.8059C65.4564 11.0259 65.6082 11.2852 65.7021 11.5673C65.7959 11.8494 65.8298 12.1479 65.8015 12.4439C65.8303 12.7401 65.7969 13.0391 65.7032 13.3216C65.6096 13.6042 65.4579 13.864 65.2579 14.0844C65.0579 14.3048 64.814 14.4809 64.5419 14.6014C64.2697 14.722 63.9754 14.7842 63.6777 14.7842C63.3801 14.7842 63.0858 14.722 62.8136 14.6014C62.5415 14.4809 62.2976 14.3048 62.0976 14.0844C61.8976 13.864 61.7459 13.6042 61.6523 13.3216C61.5586 13.0391 61.5252 12.7401 61.554 12.4439ZM64.887 12.4439C64.887 11.4678 64.4485 10.897 63.679 10.897C62.9065 10.897 62.472 11.4678 62.472 12.4439C62.472 13.4278 62.9065 13.9942 63.679 13.9942C64.4485 13.9942 64.887 13.4239 64.887 12.4439H64.887Z" fill="white"/>
<path id="Vector_17" d="M66.7363 13.4238C66.7363 12.6133 67.3398 12.146 68.4111 12.0796L69.6309 12.0093V11.6206C69.6309 11.145 69.3164 10.8765 68.709 10.8765C68.2129 10.8765 67.8691 11.0586 67.7705 11.377H66.9102C67.001 10.6035 67.7285 10.1074 68.75 10.1074C69.8789 10.1074 70.5156 10.6694 70.5156 11.6206V14.6973H69.6602V14.0645H69.5898C69.4471 14.2914 69.2467 14.4765 69.0091 14.6007C68.7715 14.7249 68.5051 14.7838 68.2373 14.7715C68.0483 14.7911 67.8572 14.7709 67.6765 14.7122C67.4957 14.6536 67.3292 14.5576 67.1878 14.4307C67.0464 14.3037 66.9332 14.1485 66.8554 13.9751C66.7776 13.8017 66.7371 13.6139 66.7363 13.4238ZM69.6309 13.0391V12.6626L68.5312 12.7329C67.9111 12.7744 67.6299 12.9853 67.6299 13.3823C67.6299 13.7876 67.9814 14.0234 68.4649 14.0234C68.6065 14.0378 68.7496 14.0235 68.8856 13.9814C69.0216 13.9393 69.1478 13.8703 69.2565 13.7784C69.3653 13.6866 69.4545 13.5738 69.5188 13.4468C69.5831 13.3198 69.6212 13.1811 69.6309 13.0391Z" fill="white"/>
<path id="Vector_18" d="M71.6836 12.4439C71.6836 11.021 72.415 10.1196 73.5527 10.1196C73.8342 10.1067 74.1134 10.1741 74.358 10.314C74.6025 10.4539 74.8021 10.6605 74.9336 10.9096H75V8.43652H75.8887V14.6973H75.0371V13.9858H74.9668C74.8252 14.2333 74.6186 14.4374 74.3693 14.5758C74.1201 14.7143 73.8377 14.782 73.5527 14.7715C72.4072 14.7715 71.6836 13.8701 71.6836 12.4439ZM72.6016 12.4439C72.6016 13.3989 73.0518 13.9737 73.8047 13.9737C74.5537 13.9737 75.0166 13.3907 75.0166 12.4478C75.0166 11.5093 74.5489 10.918 73.8047 10.918C73.0566 10.918 72.6016 11.4966 72.6016 12.4439H72.6016Z" fill="white"/>
<path id="Vector_19" d="M79.5657 12.4438C79.5374 12.1479 79.5712 11.8493 79.6651 11.5672C79.7589 11.2852 79.9107 11.0258 80.1106 10.8059C80.3106 10.5859 80.5543 10.4101 80.8261 10.2898C81.098 10.1696 81.392 10.1074 81.6892 10.1074C81.9865 10.1074 82.2805 10.1696 82.5524 10.2898C82.8242 10.4101 83.0679 10.5859 83.2679 10.8059C83.4678 11.0258 83.6196 11.2852 83.7134 11.5672C83.8072 11.8493 83.8411 12.1479 83.8128 12.4438C83.8416 12.74 83.8082 13.039 83.7146 13.3215C83.621 13.6041 83.4693 13.8639 83.2693 14.0843C83.0693 14.3047 82.8254 14.4808 82.5533 14.6014C82.2812 14.7219 81.9869 14.7842 81.6892 14.7842C81.3916 14.7842 81.0973 14.7219 80.8252 14.6014C80.553 14.4808 80.3091 14.3047 80.1092 14.0843C79.9092 13.8639 79.7575 13.6041 79.6639 13.3215C79.5703 13.039 79.5369 12.74 79.5657 12.4438ZM82.8987 12.4438C82.8987 11.4677 82.4602 10.8969 81.6907 10.8969C80.9182 10.8969 80.4837 11.4677 80.4837 12.4438C80.4837 13.4277 80.9183 13.9941 81.6907 13.9941C82.4602 13.9941 82.8987 13.4238 82.8987 12.4438Z" fill="white"/>
<path id="Vector_20" d="M85.0059 10.1939H85.8613V10.9092H85.9277C86.0404 10.6523 86.2304 10.4369 86.4713 10.2931C86.7121 10.1493 86.9919 10.0842 87.2715 10.107C87.4906 10.0905 87.7106 10.1235 87.9152 10.2036C88.1198 10.2837 88.3037 10.4088 88.4534 10.5697C88.6031 10.7305 88.7147 10.923 88.7799 11.1328C88.8451 11.3426 88.8622 11.5644 88.8301 11.7818V14.6968H87.9414V12.0049C87.9414 11.2813 87.627 10.9214 86.9697 10.9214C86.821 10.9145 86.6725 10.9398 86.5344 10.9957C86.3964 11.0515 86.272 11.1365 86.1699 11.2449C86.0678 11.3533 85.9903 11.4825 85.9427 11.6236C85.8952 11.7647 85.8788 11.9145 85.8945 12.0625V14.6968H85.0059V10.1939Z" fill="white"/>
<path id="Vector_21" d="M93.8506 9.07324V10.2148H94.8262V10.9634H93.8506V13.2788C93.8506 13.7505 94.0449 13.957 94.4873 13.957C94.6006 13.9567 94.7137 13.9498 94.8262 13.9365V14.6768C94.6666 14.7053 94.5049 14.7205 94.3428 14.7222C93.3545 14.7222 92.9609 14.3745 92.9609 13.5063V10.9633H92.2461V10.2148H92.9609V9.07324H93.8506Z" fill="white"/>
<path id="Vector_22" d="M96.041 8.43652H96.9219V10.918H96.9922C97.1103 10.6587 97.3055 10.4421 97.5512 10.2977C97.7969 10.1534 98.0812 10.0883 98.3652 10.1113C98.5831 10.0995 98.801 10.1359 99.0033 10.2179C99.2056 10.2999 99.3873 10.4256 99.5354 10.586C99.6835 10.7463 99.7944 10.9373 99.8602 11.1455C99.926 11.3536 99.945 11.5737 99.916 11.79V14.6973H99.0264V12.0093C99.0264 11.29 98.6914 10.9258 98.0635 10.9258C97.9108 10.9132 97.7571 10.9342 97.6134 10.9873C97.4696 11.0404 97.3391 11.1242 97.2311 11.2329C97.1232 11.3417 97.0402 11.4727 96.9882 11.6168C96.9361 11.761 96.9162 11.9147 96.9297 12.0674V14.6973H96.0411L96.041 8.43652Z" fill="white"/>
<path id="Vector_23" d="M105.097 13.4815C104.977 13.8931 104.715 14.249 104.358 14.4872C104.002 14.7253 103.573 14.8305 103.146 14.7842C102.849 14.7921 102.555 14.7353 102.282 14.6177C102.01 14.5002 101.766 14.3248 101.568 14.1036C101.37 13.8825 101.223 13.6209 101.136 13.3371C101.049 13.0533 101.026 12.754 101.066 12.46C101.027 12.1652 101.051 11.8652 101.137 11.5805C101.224 11.2959 101.371 11.0331 101.567 10.81C101.764 10.587 102.007 10.4088 102.278 10.2876C102.55 10.1664 102.845 10.105 103.142 10.1075C104.395 10.1075 105.151 10.9635 105.151 12.3775V12.6876H101.971V12.7374C101.957 12.9026 101.978 13.069 102.032 13.2257C102.086 13.3825 102.173 13.5262 102.286 13.6476C102.399 13.7691 102.536 13.8656 102.688 13.931C102.84 13.9964 103.005 14.0292 103.171 14.0274C103.383 14.0529 103.598 14.0146 103.789 13.9174C103.98 13.8202 104.138 13.6685 104.242 13.4815L105.097 13.4815ZM101.971 12.0303H104.246C104.257 11.8792 104.236 11.7274 104.185 11.5847C104.134 11.442 104.054 11.3115 103.95 11.2016C103.845 11.0918 103.719 11.005 103.579 10.9468C103.439 10.8886 103.289 10.8604 103.137 10.8638C102.984 10.8619 102.831 10.8908 102.689 10.9487C102.546 11.0067 102.417 11.0925 102.308 11.2012C102.2 11.3099 102.114 11.4393 102.056 11.5817C101.998 11.7241 101.969 11.8766 101.971 12.0303H101.971Z" fill="white"/>
</g>
</g>
</g>
</svg>
